# xmcd
#
# Track frame offsets: 
#        150
#        30392
#        48968
#        70104
#        98467
#        133220
#        158295
#        178401
#        205427
#        223446
#        238931
#        262112
#
# Disc length: 3772 seconds
#
# Revision: 0
# Processed by: cddbd v1.5.2PL0 Copyright (c) Steve Scherf et al.
# Submitted via: ExactAudioCopy v1.0b3
#
DISCID=b10eba0c
DTITLE=Various Artist - Nguoi Tinh Khong Chan Dung
DYEAR=1989
DGENRE=
TTITLE0=Khanh Ly - Cho mot nguoi nam xuong
TTITLE1=Le Thu - Nguoi tinh khong chan dung
TTITLE2=Elvis Phuong - Tinh thu cua linh
TTITLE3=Huong Lan - Vuon tao ngo
TTITLE4=Ngoc Lan - Nguoi chet tro ve
TTITLE5=Tuan Vu - Tren bon vung chien thuat
TTITLE6=Minh Phuc, Minh Xuan - Tinh linh
TTITLE7=Thanh Tuyen - Anh khong chet dau em
TTITLE8=Nhat Cuong - Rung la thap
TTITLE9=Vy Van - Tinh yeu thuy thu
TTITLE10=Thanh Thuy - Mot chuyen bay dem
TTITLE11=Duy Quang - Hoa bien
EXTD=
EXTT0=
EXTT1=
EXTT2=
EXTT3=
EXTT4=
EXTT5=
EXTT6=
EXTT7=
EXTT8=
EXTT9=
EXTT10=
EXTT11=
PLAYORDER=
